<svg width="18" height="20" viewBox="0 0 18 20" fill="none" xmlns="http://www.w3.org/2000/svg">
<path d="M17 8.00005C16.3149 6.82983 15.2049 5.96887 13.9011 5.59635C12.5972 5.22382 11.1999 5.36842 10 6.00005V1.00005H8.00002V6.00005C6.80009 5.36842 5.4028 5.22382 4.09896 5.59635C2.79511 5.96887 1.68513 6.82983 1.00002 8.00005C-0.999983 11.0001 4.00002 20 6.00002 20C8.00002 20 8.00002 19 9.00002 19C10 19 10 20 12 20C14 20 19 11.0001 17 8.00005ZM15.25 11.3801C14.63 13.8501 13.41 16.12 11.7 18C11.5 18 11.27 17.9 11.1 17.75C10.5056 17.2695 9.76439 17.0073 9.00002 17.0073C8.23565 17.0073 7.4944 17.2695 6.90002 17.75C6.73002 17.9 6.50002 18 6.30002 18C4.58526 16.1263 3.36508 13.8544 2.75002 11.3901C2.50002 10.6601 2.45002 9.87005 2.66002 9.12005C2.94464 8.61258 3.35581 8.18744 3.8535 7.88603C4.35118 7.58461 4.91843 7.41719 5.50002 7.40005C6.06002 7.41005 6.61002 7.54005 7.11002 7.79005L8.00002 8.24005H10L10.89 7.79005C11.39 7.54005 11.94 7.41005 12.5 7.40005C13.68 7.43005 14.76 8.08005 15.34 9.11005C15.55 9.86005 15.5 10.6501 15.25 11.3801ZM8.00002 3.00005C2.38002 6.07005 1.11002 1.78005 1.11002 1.78005C1.11002 1.78005 3.77002 -1.80995 8.00002 3.00005Z" fill="#387EB9"/>
</svg>
