<svg width="20" height="20" viewBox="0 0 20 20" fill="#387EB9" xmlns="http://www.w3.org/2000/svg">
<path d="M11 0V2C15.39 2.54 18.5 6.53 17.96 10.92C17.7393 12.689 16.935 14.3339 15.6745 15.5944C14.4139 16.855 12.769 17.6593 11 17.88V19.88C16.5 19.28 20.4501 14.34 19.85 8.85C19.33 4.19 15.66 0.5 11 0ZM9.00005 0C7.04005 0.18 5.19005 0.95 3.67005 2.2L5.10005 3.74C6.22005 2.84 7.57005 2.26 9.00005 2.06V0.0599999V0ZM2.26005 3.67C1.00573 5.18495 0.235748 7.04196 0.0500488 9H2.05005C2.24005 7.58 2.80005 6.23 3.69005 5.1L2.26005 3.67ZM0.0600488 11C0.260049 12.96 1.03005 14.81 2.27005 16.33L3.69005 14.9C2.80698 13.7696 2.244 12.4226 2.06005 11H0.0600488ZM5.06005 16.37L3.67005 17.74C5.18483 19.0027 7.03932 19.789 9.00005 20V18C7.57745 17.816 6.23045 17.2531 5.10005 16.37H5.06005ZM6.58005 14.8L7.50005 10.91L4.50005 8.33L8.45005 7.96L10 4.35L11.55 8L15.5 8.33L12.5 10.91L13.42 14.8L10 12.74L6.58005 14.8Z" fill="#387EB9"/>
</svg>
