<svg width="22" height="22" viewBox="0 0 22 22" fill="#387EB9" xmlns="http://www.w3.org/2000/svg">
<path d="M18.5201 1.49002C16.1801 -0.849981 11.9001 -0.379982 8.97009 2.55002C7.37009 4.15002 6.45009 6.42002 6.43009 8.01002C6.41009 9.59002 6.69009 11.9 5.08009 13.51L0.840088 17.75L2.26009 19.17L6.50009 14.93C8.11009 13.32 10.4201 13.6 12.0001 13.58C13.5801 13.56 15.8601 12.64 17.4601 11.04C20.3801 8.11002 20.8601 3.83002 18.5201 1.49002ZM9.32009 10.68C7.79009 9.15002 8.27009 6.07002 10.3801 3.96002C12.4901 1.85002 15.5601 1.37002 17.1001 2.90002C18.6301 4.43002 18.1501 7.51002 16.0401 9.62002C13.9301 11.73 10.8601 12.21 9.32009 10.68ZM17.0001 16C17.5301 16 18.0401 16.21 18.4101 16.59C19.1901 17.37 19.1901 18.64 18.4101 19.42C18.0401 19.79 17.5301 20 17.0001 20C16.4701 20 15.9601 19.79 15.5901 19.41C14.8101 18.63 14.8101 17.36 15.5901 16.58C15.9601 16.21 16.4701 16 17.0001 16ZM17.0001 14C16.2081 13.9984 15.4334 14.2321 14.7744 14.6714C14.1154 15.1108 13.6018 15.7359 13.2986 16.4676C12.9954 17.1993 12.9164 18.0046 13.0716 18.7812C13.2267 19.5579 13.6091 20.271 14.1701 20.83C14.9501 21.61 15.9801 22 17.0001 22C17.7921 22.0016 18.5667 21.7679 19.2257 21.3286C19.8847 20.8893 20.3984 20.2641 20.7016 19.5324C21.0047 18.8007 21.0838 17.9955 20.9286 17.2188C20.7735 16.4421 20.3911 15.7291 19.8301 15.17C19.4584 14.7986 19.0171 14.5041 18.5315 14.3033C18.046 14.1026 17.5255 13.9995 17.0001 14Z" fill="#387EB9"/>
</svg>
