<svg width="30" height="23" viewBox="0 0 30 23" fill="none" xmlns="http://www.w3.org/2000/svg">
<path d="M26.8749 0.333252H2.87492C2.16767 0.333252 1.4894 0.614203 0.989301 1.1143C0.489204 1.6144 0.208252 2.29267 0.208252 2.99992V20.3333C0.208252 21.0405 0.489204 21.7188 0.989301 22.2189C1.4894 22.719 2.16767 22.9999 2.87492 22.9999H26.8749C27.5822 22.9999 28.2604 22.719 28.7605 22.2189C29.2606 21.7188 29.5416 21.0405 29.5416 20.3333V2.99992C29.5416 2.29267 29.2606 1.6144 28.7605 1.1143C28.2604 0.614203 27.5822 0.333252 26.8749 0.333252ZM2.87492 20.3333V2.99992H13.5416V20.3333H2.87492ZM26.8749 20.3333H16.2083V2.99992H26.8749V20.3333ZM17.5416 7.66658H25.5416V9.66658H17.5416V7.66658ZM17.5416 10.9999H25.5416V12.9999H17.5416V10.9999ZM17.5416 14.3333H25.5416V16.3333H17.5416V14.3333Z" fill="#C2C2C2"/>
</svg>
