<svg width="27" height="24" viewBox="0 0 27 24" fill="none" xmlns="http://www.w3.org/2000/svg">
<path d="M24.0417 2.66667V21.3333H2.70841V2.66667H24.0417ZM24.0417 0H2.70841C1.22841 0 0.041748 1.18667 0.041748 2.66667V21.3333C0.041748 22.8133 1.22841 24 2.70841 24H24.0417C25.5217 24 26.7084 22.8133 26.7084 21.3333V2.66667C26.7084 1.18667 25.5217 0 24.0417 0ZM21.3751 16H5.37508V18.6667H21.3751V16ZM10.7084 5.33333H5.37508V13.3333H10.7084V5.33333ZM13.3751 8H21.3751V5.33333H13.3751V8ZM21.3751 10.6667H13.3751V13.3333H21.3751V10.6667Z" fill="#C2C2C2"/>
</svg>
