<svg width="23" height="22" viewBox="0 0 23 22" fill="none" xmlns="http://www.w3.org/2000/svg">
<path d="M11.6249 0.333252C13.0394 0.333252 14.396 0.895155 15.3962 1.89535C16.3963 2.89554 16.9583 4.2521 16.9583 5.66658C16.9583 7.08107 16.3963 8.43763 15.3962 9.43782C14.396 10.438 13.0394 10.9999 11.6249 10.9999C10.2104 10.9999 8.85388 10.438 7.85368 9.43782C6.85349 8.43763 6.29158 7.08107 6.29158 5.66658C6.29158 4.2521 6.85349 2.89554 7.85368 1.89535C8.85388 0.895155 10.2104 0.333252 11.6249 0.333252ZM11.6249 2.99992C10.9177 2.99992 10.2394 3.28087 9.7393 3.78097C9.2392 4.28106 8.95825 4.95934 8.95825 5.66658C8.95825 6.37383 9.2392 7.05211 9.7393 7.5522C10.2394 8.0523 10.9177 8.33325 11.6249 8.33325C12.3322 8.33325 13.0104 8.0523 13.5105 7.5522C14.0106 7.05211 14.2916 6.37383 14.2916 5.66658C14.2916 4.95934 14.0106 4.28106 13.5105 3.78097C13.0104 3.28087 12.3322 2.99992 11.6249 2.99992ZM11.6249 12.3333C15.1849 12.3333 22.2916 14.1066 22.2916 17.6666V21.6666H0.958252V17.6666C0.958252 14.1066 8.06492 12.3333 11.6249 12.3333ZM11.6249 14.8666C7.66492 14.8666 3.49159 16.8133 3.49159 17.6666V19.1333H19.7583V17.6666C19.7583 16.8133 15.5849 14.8666 11.6249 14.8666Z" fill="#C2C2C2"/>
</svg>
