<svg width="24" height="29" viewBox="0 0 24 29" fill="none" xmlns="http://www.w3.org/2000/svg">
<path d="M9.33333 26H14.6667C14.6667 27.4667 13.4667 28.6667 12 28.6667C10.5333 28.6667 9.33333 27.4667 9.33333 26ZM24 23.3333V24.6667H0V23.3333L2.66667 20.6667V12.6667C2.66667 8.53333 5.33333 4.93333 9.33333 3.73333V3.33333C9.33333 1.86667 10.5333 0.666667 12 0.666667C13.4667 0.666667 14.6667 1.86667 14.6667 3.33333V3.73333C18.6667 4.93333 21.3333 8.53333 21.3333 12.6667V20.6667L24 23.3333ZM18.6667 12.6667C18.6667 8.93333 15.7333 6 12 6C8.26667 6 5.33333 8.93333 5.33333 12.6667V22H18.6667V12.6667Z" fill="#C2C2C2"/>
</svg>
